Coordinates
version=1
nRows=22
nColumns=24
inDegrees=yes

Units are S.I. units (second, meters, Newtons, ...)
Angles are in degrees.

endheader
time	pelvis_tilt	pelvis_list	pelvis_rotation	pelvis_tx	pelvis_ty	pelvis_tz	hip_flexion_r	hip_adduction_r	hip_rotation_r	knee_angle_r	ankle_angle_r	subtalar_angle_r	mtp_angle_r	hip_flexion_l	hip_adduction_l	hip_rotation_l	knee_angle_l	ankle_angle_l	subtalar_angle_l	mtp_angle_l	lumbar_extension	lumbar_bending	lumbar_rotation
      3.41000000	     -9.67917132	    -11.15525205	     -3.82649858	     -1.49235820	     -0.03291728	      0.55310751	      2.84137193	     17.83543714	     18.68886473	    -12.10551302	      6.96825659	     -1.72066131	     -4.85702516	     41.41309120	    -11.46710021	      0.64708419	    -55.00204982	     -8.88996681	     10.40959544	     29.15042493	      5.36131692	     12.23138962	      8.66308376
      3.41500000	     -9.75465704	    -10.99771888	     -4.09598292	     -1.48559198	     -0.03335590	      0.55319964	      2.33884668	     17.63893951	     18.95525904	    -11.99216853	      7.10759675	     -1.64673224	     -4.81607022	     41.77339234	    -11.43018509	      0.40489357	    -53.47348850	     -8.36043615	     10.91020158	     28.81588998	      5.28057304	     12.11277196	      9.01007120
      3.42000000	     -9.82020670	    -10.84922222	     -4.32580956	     -1.47885301	     -0.03385177	      0.55322105	      1.85533491	     17.44916187	     19.17926991	    -11.91739284	      7.25384416	     -1.57929733	     -4.77045758	     42.09751378	    -11.38055322	      0.19612769	    -51.88330831	     -7.77967661	     11.47534823	     28.42939138	      5.19117387	     12.00028943	      9.36280852
      3.42500000	     -9.92750643	    -10.69166080	     -4.53222103	     -1.47208355	     -0.03440037	      0.55320941	      1.42457068	     17.24475470	     19.36439004	    -11.83961303	      7.38940298	     -1.48114754	     -4.71442939	     42.43543562	    -11.32212333	     -0.01633090	    -50.21257459	     -7.29874426	     12.07528159	     28.12934069	      5.16097844	     11.87546100	      9.59747314
      3.43000000	    -10.02827851	    -10.53189433	     -4.72553002	     -1.46532120	     -0.03499622	      0.55315613	      1.01084690	     17.03770107	     19.51452939	    -11.79851244	      7.53885849	     -1.37411665	     -4.64351415	     42.72553544	    -11.25378451	     -0.21403004	    -48.47426905	     -6.75773761	     12.72871359	     27.81584468	      5.11915730	     11.74884006	      9.85608497
      3.43500000	    -10.12156597	    -10.36942704	     -4.91069354	     -1.45855830	     -0.03562501	      0.55306312	      0.61022850	     16.82600269	     19.61865777	    -11.78832478	      7.69929136	     -1.25105419	     -4.55622076	     42.96821021	    -11.17347992	     -0.38260568	    -46.68212731	     -6.16811745	     13.45558261	     27.41907956	      5.06613793	     11.61654761	     10.15287238
      3.44000000	    -10.23814708	    -10.19255120	     -5.07886412	     -1.45174150	     -0.03626790	      0.55294798	      0.24239402	     16.59541809	     19.68594767	    -11.78161462	      7.84332339	     -1.09146428	     -4.45475119	     43.19590219	    -11.07425664	     -0.54418069	    -44.82606880	     -5.61916302	     14.23501748	     26.96400262	      5.05237847	     11.46596529	     10.38988016
      3.44500000	    -10.39862622	    -10.00660060	     -5.24952647	     -1.44483819	     -0.03698849	      0.55282734	     -0.07317919	     16.35813444	     19.75274820	    -11.79055426	      7.98936489	     -0.93293249	     -4.34536434	     43.42328003	    -10.97815127	     -0.73034674	    -42.88849570	     -5.12820025	     14.98616266	     26.71007361	      5.10655007	     11.31066104	     10.54286256
      3.45000000	    -10.52944046	     -9.80980235	     -5.41951781	     -1.43793466	     -0.03769637	      0.55266514	     -0.39360625	     16.10425526	     19.76498444	    -11.84256131	      8.14863791	     -0.71062628	     -4.19523849	     43.57417552	    -10.85961028	     -0.86875124	    -40.90975831	     -4.57568635	     15.81592676	     26.33709957	      5.11650700	     11.14869946	     10.80438604
      3.45500000	    -10.68071750	     -9.60504955	     -5.57555365	     -1.43094329	     -0.03842663	      0.55247035	     -0.68775549	     15.83723739	     19.74075298	    -11.89796267	      8.29236841	     -0.45053937	     -4.02490636	     43.70930133	    -10.72759172	     -1.00203539	    -38.88505655	     -4.06373071	     16.65326177	     25.95051002	      5.16889417	     10.97611759	     10.99398884
      3.46000000	    -10.87677259	     -9.39622041	     -5.69186911	     -1.42387602	     -0.03920930	      0.55223448	     -0.93382913	     15.56668593	     19.69586443	    -11.94199952	      8.39232160	     -0.22795133	     -3.88408407	     43.86837842	    -10.55899792	     -1.07329007	    -36.81543463	     -3.69420803	     17.42769020	     25.64337725	      5.29507949	     10.79407774	     11.08067600
      3.46500000	    -10.98906568	     -9.19840145	     -5.84606231	     -1.41683236	     -0.03994224	      0.55199722	     -1.23043382	     15.29498221	     19.54756815	    -12.06141903	      8.55420311	      0.19684603	     -3.61170530	     43.89160302	    -10.41785514	     -1.10521681	    -34.74503626	     -3.16100358	     18.28688337	     25.18063271	      5.30308975	     10.62853586	     11.33117043
      3.47000000	    -11.13226385	     -9.00347097	     -5.93413369	     -1.40971697	     -0.04072627	      0.55165951	     -1.48538634	     15.01953753	     19.31949235	    -12.17389572	      8.68430841	      0.65401688	     -3.29905787	     43.94001492	    -10.22107604	     -1.03476905	    -32.67023758	     -2.74872346	     19.04996717	     24.65163598	      5.37212570	     10.45879750	     11.44894196
      3.47500000	    -11.36075701	     -8.83663722	     -5.98181056	     -1.40259252	     -0.04164352	      0.55129197	     -1.64929384	     14.79792092	     19.20879331	    -12.29782603	      8.70902204	      0.85559255	     -3.16430565	     44.07921828	    -10.00710242	     -0.81236800	    -30.58407531	     -2.55644663	     19.65075255	     24.36191001	      5.53818467	     10.31613996	     11.46302694
      3.48000000	    -11.41649592	     -8.66226773	     -6.05610284	     -1.39539075	     -0.04236142	      0.55089793	     -1.96269173	     14.51156157	     18.74973189	    -12.45410567	      8.88063810	      1.65690826	     -2.64973435	     43.98093703	     -9.80551036	     -0.58754746	    -28.53538302	     -2.20390506	     20.27385858	     23.74265171	      5.51572463	     10.15509873	     11.61280450
      3.48500000	    -11.64233100	     -8.50623115	     -6.08814860	     -1.38816119	     -0.04330541	      0.55052049	     -2.10693633	     14.29812594	     18.58662699	    -12.62152143	      8.86722838	      1.92131057	     -2.46659676	     44.07739524	     -9.58476925	     -0.20153864	    -26.50292576	     -2.11545931	     20.69965360	     23.41617814	      5.69748753	     10.01251619	     11.60304743
      3.49000000	    -11.70200166	     -8.33297111	     -6.11147179	     -1.38087301	     -0.04401136	      0.54997298	     -2.38187062	     13.99507659	     18.02672492	    -12.81796987	      8.97592650	      2.84106282	     -1.84513016	     43.94233856	     -9.31086936	      0.32104580	    -24.49245575	     -2.06840269	     20.82886891	     22.87131297	      5.69583312	      9.85778268	     11.70602649
      3.49500000	    -11.87642341	     -8.15443817	     -6.16205970	     -1.37352246	     -0.04483705	      0.54955242	     -2.53255157	     13.72338354	     17.64794549	    -13.04626791	      8.96427285	      3.48123093	     -1.34835617	     43.93094958	     -9.07177015	      0.87963864	    -22.56590539	     -2.09530849	     20.87825820	     22.46969264	      5.83031304	      9.69623041	     11.76646426
      3.50000000	    -12.04567751	     -7.95811774	     -6.23128122	     -1.36612731	     -0.04561804	      0.54917045	     -2.66912458	     13.43042772	     17.27313023	    -13.31178188	      8.93490085	      4.17350723	     -0.84048503	     43.90556656	     -8.84034440	      1.48192906	    -20.74020064	     -2.16364088	     20.79490665	     22.04704695	      5.96131146	      9.51228736	     11.85030837
      3.50500000	    -12.25060001	     -7.73979236	     -6.33659519	     -1.35863249	     -0.04639348	      0.54885126	     -2.75079869	     13.11565620	     16.90637836	    -13.61457055	      8.88309986	      4.92308727	     -0.30587562	     43.91564327	     -8.62811856	      2.08826384	    -19.05104796	     -2.23137092	     20.58505613	     21.55009258	      6.14308559	      9.31027513	     11.96424075
      3.51000000	    -12.52746810	     -7.47130527	     -6.49941175	     -1.35102440	     -0.04721458	      0.54869195	     -2.74604436	     12.77623742	     16.71088122	    -13.96589315	      8.77935855	      5.48248465	      0.05539853	     44.02050916	     -8.45158461	      2.52139310	    -17.54230653	     -2.25795673	     20.44616875	     21.04152275	      6.42548714	      9.05291589	     12.09916903
      3.51500000	    -12.78980021	     -7.22882834	     -6.72474922	     -1.34335296	     -0.04801359	      0.54852255	     -2.72341957	     12.43986368	     16.41101453	    -14.37708971	      8.70528610	      6.33929682	      0.59725832	     44.10895146	     -8.33135259	      3.05843013	    -16.21293993	     -2.23861099	     20.08621043	     20.32662276	      6.68426479	      8.84799973	     12.34933457
